<svg xmlns="http://www.w3.org/2000/svg"  fill="black" viewBox="0 0 107 30" preserveAspectRatio="none">
  <path  fill-rule="evenodd" d="M62.09 20.707h-.694C61.216 24.92 53.501 30 53.501 30s-7.716-5.08-7.896-9.293h-.694c-4.337 0-7.922-3.218-8.507-7.4h-.255c-4.745 0-8.59-3.852-8.59-8.604h51.884c0 4.752-3.846 8.605-8.59 8.605h-.256c-.584 4.181-4.17 7.4-8.506 7.4Z" clip-rule="evenodd"/>
  <path  d="M17.567 7a11.49 11.49 0 0 0 10.577 7h50.712c4.61 0 8.775-2.756 10.577-7a11.49 11.49 0 0 1 10.577-7H107 0h6.99c4.61 0 8.775 2.756 10.577 7Z"/>
</svg>
