<svg  preserveAspectRatio="none" xmlns="http://www.w3.org/2000/svg" fill="none" viewBox="0 0 275 67">
  <path fill="#fff" fill-rule="evenodd" d="M61.525 44.067a32 32 0 0 1-29.709-20.11l-.757-1.89-.757-1.891A32 32 0 0 0 .594.066h273.841a32 32 0 0 0-29.708 20.11l-.757 1.89-.757 1.892a32 32 0 0 1-29.709 20.109h-53.489v3.9c0 3.4-3.336 6.156-7.451 6.156h-.221c-.508 2.992-3.617 5.295-7.378 5.295h-.603c-.156 3.014-6.847 6.649-6.847 6.649s-6.692-3.635-6.848-6.65h-.603c-3.761 0-6.87-2.302-7.378-5.294h-.221c-4.115 0-7.45-2.757-7.45-6.157v-3.9h-53.49Z" clip-rule="evenodd"/>
</svg>
